<?xml version="1.0" encoding="utf-8"?>
<svg xmlns="http://www.w3.org/2000/svg" xmlns:xlink="http://www.w3.org/1999/xlink" version= "1.1" width="100px" height="100px" viewBox="910 518 100 100">
<g id="layer1">
</g>
<g id="layer2">
<g style="fill:rgb(71,72,72); fill-opacity:1.0; stroke-linejoin: miter">
<path d="M909.4113,541.5735L909.4113,541.5735L997.9954,541.57446C999.61346,541.57446,1000.92505,542.88617,1000.92505,544.5042C1000.92505,546.12225,999.61334,547.43384,997.9953,547.43384L997.9953,547.43384L909.4112,547.43286C907.79315,547.43286,906.48157,546.12115,906.48157,544.5031C906.48157,542.8851,907.7933,541.5735,909.4113,541.5735 Z"/>
</g>
<g style="fill:rgb(71,72,72); fill-opacity:1.0; stroke-linejoin: miter">
<path d="M909.6977,580.04144L909.6977,580.04144L998.87964,580.0424C1000.4977,580.0424,1001.80927,581.3541,1001.80927,582.97217C1001.80927,584.5902,1000.49756,585.9018,998.8795,585.9018L998.8795,585.9018L909.6976,585.9008C908.0795,585.9008,906.76794,584.5891,906.76794,582.97107C906.76794,581.353,908.07965,580.04144,909.6977,580.04144 Z"/>
</g>
<g style="fill:rgb(71,72,72); fill-opacity:1.0; stroke-linejoin: miter">
<path d="M788.45447,443.29584L788.45447,443.29584L788.45447,443.29684C788.45447,444.9149,787.1428,446.22656,785.5248,446.22656C783.90674,446.22656,782.5951,444.9149,782.5951,443.29684L782.5951,443.29684L782.5951,443.29584C782.5951,441.6778,783.90674,440.36612,785.5248,440.36612C787.1428,440.36612,788.45447,441.6778,788.45447,443.29584 Z"/>
</g>
<g style="fill:rgb(71,72,72); fill-opacity:1.0; stroke-linejoin: miter">
<path d="M998.13776,579.35284L998.13776,579.35284Q999.8581,578.68787,1000.29004,578.36487L1000.29016,578.36475Q999.99023,578.589,999.76434,579.09174C999.85754,578.8843,999.9746,578.6884,1000.11316,578.508L1000.11316,578.508Q1000.9337,577.4396,1001.39984,576.00085C1001.4194,575.9405,1001.4408,575.88104,1001.46423,575.8221L1001.4618,575.8282Q1001.4631,575.8249,1001.4648,575.82056L1001.46375,575.8232Q1001.65515,575.33093,1002.25854,572.8716L1002.2106,573.1092L1002.86176,569.01776C1002.8697,568.968,1002.87885,568.91846,1002.88934,568.8692L1002.88934,568.8692Q1003.12537,567.7588,1003.32733,562.0731L1003.32605,562.11957Q1003.35864,560.46124,1003.2988,560.0362L1003.2988,560.0364Q1003.3335,560.2828,1003.48865,560.6065C1003.3823,560.38464,1003.3044,560.1502,1003.25665,559.9088L1003.25665,559.9088L1002.0836,553.97736C1001.7786,552.4351,1002.74524,550.92706,1004.2739,550.5602L1004.2801,550.5587Q1001.4325,551.2356,1002.10376,554.0388L1002.1041,554.0402Q1002.1155,554.0875,1002.1241,554.11633L1002.12445,554.1176Q1002.0439,553.8484,1001.5654,552.56934L1001.54706,552.5188Q1001.0561,551.1293,999.81616,548.71436L999.99023,549.0095Q999.52136,548.3114,999.0916,548.1791C997.5452,547.70294,996.6776,546.06335,997.15375,544.51697C997.6299,542.9706,999.2695,542.10297,1000.81586,542.5791L1000.81586,542.5791Q1003.22876,543.322,1004.8545,545.7428C1004.9183,545.83777,1004.9763,545.9362,1005.02856,546.03796L1005.02856,546.03796Q1006.4494,548.80505,1007.07184,550.5669L1007.05347,550.51636Q1007.6009,551.97974,1007.738,552.4379L1007.73834,552.4392Q1007.77576,552.56445,1007.80176,552.6728L1007.8021,552.6742Q1008.4977,555.57886,1005.6352,556.2593L1007.83167,552.84064L1009.0047,558.7721L1008.7727,558.0744Q1009.0094,558.5683,1009.1011,559.2197L1009.1011,559.2199Q1009.2261,560.1086,1009.1843,562.2347L1009.18304,562.2811Q1008.9629,568.47766,1008.6208,570.08734L1008.6484,569.9388L1007.9972,574.0302C1007.9845,574.11,1007.96844,574.1894,1007.9492,574.2678L1007.9492,574.2678Q1007.25476,577.09827,1006.9249,577.9466L1006.9239,577.9492Q1006.918,577.9643,1006.912,577.97955L1006.97394,577.8069Q1006.1963,580.2069,1004.76025,582.07684L1005.1091,581.4931Q1004.7134,582.3738,1003.7987,583.0576L1003.7988,583.0575Q1002.7216,583.8629,1000.2504,584.8182C998.7412,585.40155,997.0448,584.65106,996.4614,583.14185C995.87805,581.6326,996.62854,579.9362,998.13776,579.35284 Z"/>
</g>
<g style="fill:rgb(71,72,72); fill-opacity:1.0; stroke-linejoin: miter">
</g>
<g style="fill:rgb(71,72,72); fill-opacity:1.0; stroke-linejoin: miter">
<path d="M1003.96716,548.8483L1004.03064,549.3166L1004.03064,549.31683L1003.9669,548.84766Q1003.94727,548.7765,1003.9293,548.7344L1003.92926,548.7343Q1003.95166,548.787,1004.02563,548.92645L1004.00305,548.88525L1005.0795,550.79016C1005.10443,550.8342,1005.12744,550.87933,1005.14844,550.9254L1005.14844,550.9254Q1005.2863,551.2276,1005.66235,551.96075L1005.70795,552.0567L1006.0801,552.90466C1006.47064,553.7946,1006.06586,554.8326,1005.1759,555.22314C1004.28595,555.6137,1003.248,555.2089,1002.8574,554.319L1002.8574,554.319L1002.4853,553.471L1002.5309,553.56696Q1002.11835,552.76263,1001.94666,552.38635L1002.01556,552.5216L1000.9391,550.6167L1000.9165,550.5755Q1000.7721,550.3032,1000.6906,550.11163L1000.69055,550.1116Q1000.61743,549.9397,1000.57495,549.786L1000.5112,549.31683L1000.5112,549.3166C1000.3161,548.848,1000.86584,547.87897,1001.8027,547.62036C1002.7395,547.36176,1003.70856,547.9115,1003.96716,548.8483 Z"/>
</g>
<g style="fill:rgb(71,72,72); fill-opacity:1.0; stroke-linejoin: miter">
<path d="M1003.1078,555.28766L1003.10767,555.28754Q1003.0244,555.1495,1002.9778,555.0656L1002.9769,555.0641Q1002.91675,554.95557,1002.87604,554.86084L1002.9119,554.9391L1002.5135,554.1245L1002.5766,554.242L1002.31934,553.80365C1002.2943,553.761,1002.27106,553.7172,1002.2497,553.6726L1002.2497,553.6726Q1002.1652,553.49615,1002.1183,553.33624L1002.1092,553.30414Q1002.0775,553.18805,1002.067,553.15424L1002.0667,553.1533Q1002.54297,554.6959,1004.1566,554.2925L1004.51685,554.15924Q1004.772,554.0317,1004.9739,553.8298L1003.7296,552.5855L1003.7296,552.5855L1004.60266,551.0577Q1002.988,550.135,1002.15625,551.7985L1002.15625,551.7985Q1001.7393,552.6324,1002.17694,553.40924L1002.1779,553.41095Q1002.1597,553.3787,1002.09436,553.27075L1005.3547,552.2303L1005.4021,552.8744L1005.39606,552.80896Q1005.36237,552.5064,1005.19763,552.2299C1005.6951,553.06476,1005.42163,554.1449,1004.5868,554.6424C1003.75195,555.1399,1002.6718,554.8664,1002.1743,554.03156L1002.1743,554.03156Q1001.9489,553.65326,1001.89825,553.19824L1001.8922,553.1328L1001.8448,552.4887C1001.78503,551.6772,1002.28955,550.9305,1003.06476,550.6831C1003.83997,550.4357,1004.6837,550.75214,1005.1051,551.44824L1005.1051,551.44824Q1005.1983,551.60223,1005.2424,551.68024L1005.24335,551.68195Q1005.7233,552.534,1005.3041,553.3725L1005.3041,553.3725Q1004.4721,555.0365,1002.85657,554.11334L1003.7296,552.5855L1003.7296,552.5855C1002.4446,553.9151,1002.0868,553.43414,1001.9937,552.87384C1001.90063,552.31354,1002.08374,551.74286,1002.48535,551.34125L1002.48535,551.34125Q1002.6875,551.1391,1002.9429,551.0114L1003.3031,550.8782Q1004.9226,550.47327,1005.4295,552.1151L1005.4292,552.1142Q1005.4575,552.2059,1005.5042,552.37665L1005.4951,552.34454Q1005.46234,552.23285,1005.42426,552.1533L1005.3546,552.0223L1005.6119,552.46063C1005.6344,552.49896,1005.65546,552.5382,1005.675,552.5781L1005.675,552.5781L1006.0734,553.3927L1006.1093,553.47095Q1006.0802,553.4032,1006.0548,553.3574L1006.05396,553.3559Q1006.06934,553.3836,1006.12134,553.4698C1006.6232,554.3018,1006.35565,555.38336,1005.5235,555.8854C1004.69135,556.3874,1003.6098,556.1198,1003.1078,555.28766 Z"/>
</g>
<g style="fill:rgb(144,144,144); fill-opacity:1.0; stroke-linejoin: miter">
<path d="M908.65576,570.65393L908.65576,570.65393L984.255,574.37146C985.2257,574.4192,985.9739,575.24475,985.92615,576.21545C985.8784,577.18616,985.05286,577.9343,984.08215,577.8866L984.08215,577.8866L908.4829,574.16907C907.5122,574.12134,906.76404,573.2958,906.81177,572.3251C906.8595,571.3544,907.68506,570.6062,908.65576,570.65393 Z"/>
</g>
<g style="fill:rgb(144,144,144); fill-opacity:1.0; stroke-linejoin: miter">
<path d="M960.3306,636.9919L960.3306,636.9919L960.3306,636.99286C960.3306,637.9647,959.5428,638.75256,958.5709,638.75256C957.59906,638.75256,956.8112,637.9647,956.8112,636.99286L956.8112,636.99286L956.8112,636.9919C956.8112,636.02,957.59906,635.2322,958.5709,635.2322C959.5428,635.2322,960.3306,636.02,960.3306,636.9919 Z"/>
</g>
<g>
<g style="fill:rgb(236,179,93); fill-opacity:1.0; stroke-linejoin: miter">
<path d="M998.8062,562.25116L998.8062,562.25116C998.8062,568.2083,993.977,573.0376,988.01984,573.0376L988.01984,573.0376C982.0627,573.0376,977.2334,568.2084,977.2334,562.25116L977.2334,562.25116C977.2334,556.294,982.0627,551.4648,988.01984,551.4648L988.01984,551.4648C993.977,551.4648,998.8062,556.294,998.8062,562.25116L998.8062,562.25116 M990.30347,562.25116L990.30347,562.25116C990.30347,560.99,989.28107,559.9675,988.01984,559.9675L988.01984,559.9675C986.7586,559.9675,985.7362,560.99,985.7362,562.25116L985.7362,562.25116C985.7362,563.5124,986.7586,564.5348,988.01984,564.5348L988.01984,564.5348C989.28107,564.5348,990.30347,563.5124,990.30347,562.25116 Z"/>
</g>
<g style="fill:rgb(236,179,93); fill-opacity:1.0; stroke-linejoin: miter">
<path d="M988.9003,555.92053Q987.3124,555.92053,985.69745,557.1022L985.6876,557.1022Q984.5802,557.8661,983.8361,559.2675L983.8361,559.2675Q983.6179,559.6785,983.4171,560.1664L983.4088,560.1664Q983.0814,560.9577,983.03046,561.94336L983.03046,561.9435Q983.00793,562.37946,983.02325,563.0133L983.0213,563.0133Q983.02167,563.18567,983.02856,563.35425L983.02856,563.35425Q983.13654,565.9905,984.7706,567.7063L984.7706,567.70624C984.91656,567.8595,985.0738,568.0017,985.2409,568.13153Q985.53326,568.35864,985.822,568.5474L985.8122,568.5474Q986.42676,569.20306,987.278,569.5836L987.27795,569.5836C987.416,569.6454,987.5574,569.6997,987.70123,569.74634Q988.6442,570.05225,989.51587,570.05225Q990.9693,570.05225,992.2243,569.2016L992.21783,569.2016Q994.33844,567.8316,994.7805,565.4504C994.7943,565.37616,994.80597,565.30206,994.8158,565.2272Q994.94525,564.2402,994.92926,563.3278L994.9193,563.3278C995.1058,562.9347,995.23456,562.506,995.2935,562.05115C995.53986,560.1504,994.49023,558.38043,992.8297,557.6301L992.81976,557.6301Q991.78613,556.53735,990.3564,556.1675L990.3465,556.1675Q989.6262,555.92053,988.9003,555.92053 Z"/>
</g>
</g>
<g style="fill:rgb(71,72,72); fill-opacity:1.0; stroke-linejoin: miter">
<path d="M910.2435,546.1357L910.2435,546.1357L910.2435,583.5706C910.2435,583.64935,910.17975,583.7131,910.1011,583.7131C910.0224,583.7131,909.9586,583.64935,909.9586,583.5706L909.9586,583.5706L909.9586,546.1357C909.9586,546.057,910.0224,545.9932,910.1011,545.9932C910.17975,545.9932,910.2435,546.057,910.2435,546.1357 Z"/>
</g>
<g style="fill:rgb(71,72,72); fill-opacity:1.0; stroke-linejoin: miter">
<path d="M854.1797,536.8791L854.1797,536.8791L854.1797,536.87915C854.18353,536.9577,854.1229,537.02454,854.0443,537.0283C853.96576,537.03217,853.8989,536.97156,853.89514,536.89294L853.89514,536.89294L853.89514,536.8929C853.8913,536.81433,853.9519,536.7475,854.0305,536.7437C854.1091,536.73987,854.1759,536.8005,854.1797,536.8791 Z"/>
</g>
<g style="fill:rgb(71,72,72); fill-opacity:1.0; stroke-linejoin: miter">
<path d="M854.1795,536.87744L854.1795,536.87744L854.1795,536.87756C854.1842,536.9561,854.1243,537.02356,854.0458,537.0282C853.9673,537.0329,853.8998,536.973,853.89514,536.8945L853.89514,536.8945L853.89514,536.8944C853.89044,536.81586,853.9503,536.7484,854.0289,536.7437C854.10736,536.7391,854.17487,536.79895,854.1795,536.87744 Z"/>
</g>
<g style="fill:rgb(71,72,72); fill-opacity:1.0; stroke-linejoin: miter">
<path d="M768.64355,479.05594L768.64355,479.05594L768.64355,479.05606C768.64056,479.13467,768.5744,479.19598,768.4958,479.19296C768.4171,479.18994,768.35583,479.12378,768.3589,479.04517L768.3589,479.04517L768.3589,479.045C768.3619,478.9664,768.42804,478.90512,768.50665,478.9081C768.58527,478.91113,768.6466,478.97733,768.64355,479.05594 Z"/>
</g>
<g style="fill:rgb(254,254,254); fill-opacity:1.0; stroke-linejoin: miter">
<path d="M988.01984,551.52783C993.94226,551.52783,998.74316,556.32874,998.74316,562.25116C998.74316,568.1735,993.94226,572.97455,988.01984,572.97455C982.09766,572.97455,977.29645,568.1735,977.29645,562.25116C977.29645,556.32874,982.09766,551.52783,988.01984,551.52783 Z M910.2435,547.3698L910.1805,547.43286L910.1805,570.732L910.2404,570.795L984.2519,574.43445C985.18787,574.48047,985.9092,575.2764,985.86316,576.21234C985.81854,577.1196,985.06866,577.8257,984.17004,577.8257C984.14056,577.8257,984.1147,577.8251,984.08527,577.8236L910.24664,574.1936L910.1805,574.2566L910.1805,580.04144L910.2435,580.1045L997.09314,580.10645L997.1546,580.0555L997.13855,580.08636C997.41785,579.7988,997.76196,579.56573,998.1605,579.4117Q999.613,578.8502,1000.15295,578.531L1000.14954,578.531L1000.1937,578.50635Q1000.999,577.4425,1001.45984,576.0203L1001.45984,576.02026C1001.4782,575.96344,1001.5004,575.902,1001.5223,575.8478L1001.52673,575.82025L1001.5267,575.8193L1001.53265,575.8193Q1001.7204,575.31494,1002.25824,573.13763L1002.2482,573.13763L1002.2737,573.1137L1002.924,569.02765L1002.924,569.0277C1002.9318,568.9787,1002.94073,568.93085,1002.95105,568.8823L1002.9524,568.8692L1002.9524,568.86896L1002.9538,568.86896Q1003.18805,567.73926,1003.38806,562.1417L1003.38513,562.1417L1003.3891,562.1208Q1003.4172,560.69244,1003.3767,560.176L1003.36707,560.1875L1003.3843,560.1619C1003.35834,560.0752,1003.3361,559.98553,1003.31854,559.8966L1003.31854,559.89655L1002.16846,554.0821L1002.176,554.0706Q1002.0805,553.7665,1001.6247,552.5478L1001.60657,552.4979L1001.6064,552.4973L1001.6063,552.4973L1001.6063,552.49725L1001.6064,552.49725Q1001.1364,551.1674,999.9847,548.9064L999.9625,548.94684L999.9831,548.8894L999.983,548.8893L999.98413,548.8893Q999.534,548.2493,999.11017,548.1188C998.6574,547.9794,998.2637,547.73773,997.9474,547.4283L997.9374,547.4283C997.9346,547.3959,997.9074,547.3708,997.8746,547.3708L910.2435,547.3698 Z"/>
</g>
<g style="fill:rgb(254,254,254); fill-opacity:1.0; stroke-linejoin: miter">
<path d="M788.449,488.5455L788.449,488.5455L788.449,488.54562C788.449,488.6243,788.3852,488.68808,788.3065,488.68808C788.22784,488.68808,788.16406,488.6243,788.16406,488.54562L788.16406,488.54562L788.16406,488.5455C788.16406,488.46683,788.22784,488.40305,788.3065,488.40305C788.3852,488.40305,788.449,488.46683,788.449,488.5455 Z"/>
</g>
</g>
<g id="layer3" opacity="0.047058824">
<g style="fill:rgb(71,72,72); fill-opacity:1.0; stroke-linejoin: miter">
<path d="M924.1037,546.1428L910.3896,547.06946L909.7272,571.8929Q910.06714,571.483,911.618,567.58636Q912.3336,566.56995,913.17346,565.9668L913.38745,565.2068L914.8702,561.8302Q916.4897,559.3679,916.89453,559.09436Q919.6164,556.8705,924.2538,554.0252L925.96686,552.6264Q927.51117,551.5883,928.5676,551.03735Q932.58435,549.35956,933.0303,548.97845Q935.6914,548.4821,938.71094,547.5539Q940.1858,547.04156,940.38477,546.6212L924.1037,546.1428"/>
</g>
<g style="fill:rgb(71,72,72); fill-opacity:1.0; stroke-linejoin: miter">
<path d="M1000.21875,549.2126L978.6456,580.86676Q983.2924,581.0082,984.7523,580.8966L989.4147,582.11945Q991.51227,582.12726,993.6179,581.6504Q996.648,581.3631,1000.3893,576.2416Q1003.08215,571.68384,1003.88306,569.1129Q1004.6618,566.7092,1004.7638,563.28864Q1004.5294,559.9395,1004.5941,558.2853Q1004.5537,557.84625,1004.21173,556.6462Q1003.49884,554.28375,1000.21875,549.2126"/>
</g>
</g>
<g id="layer4">
<g>
<g style="fill:rgb(236,179,93); fill-opacity:1.0; stroke-linejoin: miter">
<path d="M998.80615,562.25116L998.80615,562.25116C998.80615,568.2083,993.9769,573.0376,988.0198,573.0376L988.0198,573.0376C982.0626,573.0376,977.23334,568.2084,977.23334,562.25116L977.23334,562.25116C977.23334,556.294,982.0626,551.4648,988.0198,551.4648L988.0198,551.4648C993.9769,551.4648,998.80615,556.294,998.80615,562.25116L998.80615,562.25116 M990.3034,562.25116L990.3034,562.25116C990.3034,560.99,989.281,559.9675,988.0198,559.9675L988.0198,559.9675C986.75854,559.9675,985.73615,560.99,985.73615,562.25116L985.73615,562.25116C985.73615,563.5124,986.75854,564.5348,988.0198,564.5348L988.0198,564.5348C989.281,564.5348,990.3034,563.5124,990.3034,562.25116 Z"/>
</g>
<g style="fill:rgb(236,179,93); fill-opacity:1.0; stroke-linejoin: miter">
<path d="M988.90027,555.92053Q987.3123,555.92053,985.6974,557.1022L985.68756,557.1022Q984.58014,557.8661,983.83606,559.2675L983.83606,559.2675Q983.61786,559.6785,983.41705,560.1664L983.40875,560.1664Q983.08136,560.9577,983.0304,561.94336L983.0304,561.9435Q983.0079,562.37946,983.0232,563.0133L983.02124,563.0133Q983.0216,563.18567,983.0285,563.35425L983.0285,563.35425Q983.1365,565.9905,984.77057,567.7063L984.77057,567.70624C984.9165,567.8595,985.0737,568.0017,985.24084,568.13153Q985.5332,568.35864,985.82196,568.5474L985.81213,568.5474Q986.4267,569.20306,987.27795,569.5836L987.2779,569.5836C987.41595,569.6454,987.5573,569.6997,987.7012,569.74634Q988.64417,570.05225,989.5158,570.05225Q990.96924,570.05225,992.22424,569.2016L992.2178,569.2016Q994.3384,567.8316,994.78046,565.4504C994.79425,565.37616,994.8059,565.30206,994.81573,565.2272Q994.9452,564.2402,994.9292,563.3278L994.91925,563.3278C995.1057,562.9347,995.2345,562.506,995.29346,562.05115C995.5398,560.1504,994.4902,558.38043,992.82965,557.6301L992.8197,557.6301Q991.7861,556.53735,990.3563,556.1675L990.34644,556.1675Q989.62616,555.92053,988.90027,555.92053 Z"/>
</g>
</g>
<g style="fill:rgb(254,254,254); fill-opacity:1.0; stroke-linejoin: miter">
<path d="M788.449,488.5455L788.449,488.5455L788.449,488.54562C788.449,488.6243,788.3852,488.68808,788.3065,488.68808C788.22784,488.68808,788.16406,488.6243,788.16406,488.54562L788.16406,488.54562L788.16406,488.5455C788.16406,488.46683,788.22784,488.40305,788.3065,488.40305C788.3852,488.40305,788.449,488.46683,788.449,488.5455 Z"/>
</g>
<g style="fill:rgb(254,254,254); fill-opacity:1.0; stroke-linejoin: miter">
<path d="M788.449,488.5455L788.449,488.5455L788.449,488.54562C788.449,488.6243,788.3852,488.68808,788.3065,488.68808C788.22784,488.68808,788.16406,488.6243,788.16406,488.54562L788.16406,488.54562L788.16406,488.5455C788.16406,488.46683,788.22784,488.40305,788.3065,488.40305C788.3852,488.40305,788.449,488.46683,788.449,488.5455 Z"/>
</g>
</g>
<g id="layer5" opacity="0.14901961">
<g style="fill:rgb(109,109,109); fill-opacity:1.0; stroke-linejoin: miter">
<path d="M981.84357,577.5506L981.84564,577.552L981.8619,577.5652L981.8897,577.67645Q981.91815,577.7812,981.9492,577.85974L981.98096,577.93176L982.014,577.99066L982.04834,578.0365L982.084,578.0692L982.121,578.08887L982.15924,578.09546L982.1695,578.095L982.2088,578.03625Q982.2503,577.97784,982.3004,577.9209Q982.3505,577.8639,982.4093,577.8084Q982.5268,577.6973,982.6789,577.592L981.84357,577.5506 M953.8615,576.1465L954.7483,576.4117L959.1,577.49567L963.4783,578.3166Q963.84863,578.3756,966.05975,579.068L968.75146,579.6808L969.8311,579.83496L971.8872,579.9441Q972.2626,580.0377,973.83185,580.1066L974.5442,580.2026L975.3118,580.21484L976.6287,580.0846Q977.446,579.95703,977.7223,579.82275Q978.5402,579.76117,978.8085,579.6588L979.98816,578.9557Q980.40875,578.4753,980.74854,578.229Q981.1457,577.9148,981.6917,577.56287Q981.6817,577.5328,981.8428,577.55L981.8098,577.5348Q981.7718,577.524,981.72546,577.5441L953.8615,576.1465"/>
</g>
</g>
</svg>